<svg width="157" height="47" viewBox="0 0 157 47" fill="none" xmlns="http://www.w3.org/2000/svg">
<g clip-path="url(#clip0_194_294)">
<path d="M2.43356 3.91666L21.7047 47H22.6255L30.5181 31.941L18.3504 3.91666H2.43356ZM0 46.4597H9.93154C8.87919 40.5173 8.08993 36.6007 7.56377 32.1437H6.51142C4.93288 35.9928 3.09127 40.8549 0 46.4597ZM35.8456 3.91666L37.2926 46.4597H52.0912L50.6443 3.91666H35.8456Z" fill="#181717"/>
<path d="M65.422 47C70.5521 47 72.3937 43.691 72.9199 42.273V41.6653C72.4595 41.9354 71.9333 42.4081 70.9468 42.4081C69.3684 42.4081 68.7105 40.7874 68.7105 36.398C68.7105 32.9541 69.0394 31.8737 70.026 30.5906C70.6181 29.9827 71.6704 29.5101 72.4595 29.2399V28.5647C69.5656 28.9023 64.1722 30.0503 62.5281 30.5906C59.371 31.671 56.2797 33.6293 56.2797 38.8291C56.2797 44.2989 60.1603 47 65.422 47ZM73.9724 25.1883V46.4597H86.8636V23.3649C86.8636 16.5446 82.0622 13.9785 74.0381 13.9785C70.0917 13.9785 65.2247 15.194 62.7253 17.0173V17.7601C63.7118 17.49 64.9616 17.2198 66.4743 17.2198C71.1442 17.2198 73.9724 19.0431 73.9724 25.1883ZM62.5938 27.4167C65.422 27.4167 66.8689 25.5259 66.8689 23.0948C66.8689 20.6638 65.422 18.773 62.5938 18.773C59.7656 18.773 58.253 20.6638 58.253 23.0948C58.253 25.5259 59.7656 27.4167 62.5938 27.4167Z" fill="#181717"/>
<path d="M113.47 46.4597H127.019V45.852C122.81 38.2887 119.916 33.4268 115.378 24.2428L105.907 32.684C108.34 37.8836 110.511 41.2601 113.47 46.4597ZM91.963 1.21552V46.4597H104.854V0L91.963 1.21552ZM116.956 22.352L117.351 23.0273C120.705 19.3807 122.613 17.5575 125.967 14.5187H115.115C115.97 17.5575 116.43 19.0431 116.956 22.352Z" fill="#181717"/>
<path d="M142.728 47C152.396 47 155.948 40.0446 157 36.2629V35.1149C155.158 36.5331 152.067 37.4784 148.647 37.4784C142.662 37.4784 139.834 33.4268 139.834 26.1336C139.834 17.0173 140.688 15.2615 142.53 14.7213V13.9785C133.585 14.7213 126.811 21.4741 126.811 30.3879C126.811 38.7615 131.678 47 142.728 47ZM141.478 26.5388V27.4167H156.803C156.803 21.4741 153.251 14.5187 143.78 13.9785V14.7213C145.161 15.0589 145.819 18.773 145.819 25.8635L141.478 26.5388Z" fill="#181717"/>
</g>
<defs>
<clipPath id="clip0_194_294">
<rect width="157" height="47" fill="white"/>
</clipPath>
</defs>
</svg>
